# xmcd CD database file
#
# Track frame offsets:
#	150
#	23690
#	27464
#	40361
#	56902
#	61544
#	78087
#	87670
#	109740
#	113444
#	126661
#	139207
#	154712
#	162196
#	179471
#
# Disc length: 2576 seconds
#
# Revision: 0
# Processed by: cddbd v1.5.2PL0 Copyright (c) Steve Scherf et al.
# Submitted via: CDex 1.73
#
DISCID=c50a0e0f
DTITLE=Delaney Davidson - Rough Diamond
DYEAR=2007
DGENRE=Blues
TTITLE0=I told a secret
TTITLE1=Goldern heart II
TTITLE2=Dark horses
TTITLE3=I slept late
TTITLE4=Foggy harbour
TTITLE5=You've changed
TTITLE6=Wicked wiggles
TTITLE7=Dixon lie
TTITLE8=In the aisles
TTITLE9=Pocket fully of money
TTITLE10=zoqnir
TTITLE11=Time has gone
TTITLE12=Frontseat
TTITLE13=Goldern heart
TTITLE14=Seasons of god!!
EXTD=YEAR: 2007
EXTT0=
EXTT1=
EXTT2=
EXTT3=
EXTT4=
EXTT5=
EXTT6=
EXTT7=
EXTT8=
EXTT9=
EXTT10=
EXTT11=
EXTT12=
EXTT13=
EXTT14=
PLAYORDER=
